# xmcd CD database file
#
# Track frame offsets:
#	150
#	17722
#	31957
#	43507
#	64970
#	84590
#	93720
#	107712
#	135630
#
# Disc length: 2174 seconds
#
# Revision: 3
# Processed by: cddbd v1.5.1PL2 Copyright (c) Steve Scherf et al.
# Submitted via: CDex 1.51
#
DISCID=74087c09
DTITLE=Various Artist - BLOODY KNUCKLES and LIPSTICK/HANOI ROCKS TRIBUTE
DYEAR=2000
DGENRE=
TTITLE0=TRAGEDY/Sads
TTITLE1=HIGH SCHOOL/'else
TTITLE2=MALIBU BEACH NIGHTNARE/VooDoo Hawaiians
TTITLE3=CAFE AVENUE/Hermann H. and The Peacemakers
TTITLE4=NOTHING NEW/WiTH MY FOOT
TTITLE5=TAXI DRIVER/54NUDE HONEYS
TTITLE6=UP AROUND THE BEND/THE PAN
TTITLE7=DON'T YOU EVER LEAVE ME/Boat
TTITLE8=MOTORVATIN'〜FALLEN STAR/SEBASTIAN BACH
EXTD=1988\n YEAR: 2000
EXTT0=
EXTT1=
EXTT2=
EXTT3=
EXTT4=
EXTT5=
EXTT6=
EXTT7=
EXTT8=
PLAYORDER=
